<svg xmlns="http://www.w3.org/2000/svg" width="89" height="98" viewBox="0 0 89.1 98.4"><style>.a{fill:#FF0048;}.b{fill:#FFF;stroke:#BDE8E0;}.c{fill:#BDE8E0;}</style><path d="M73.6 7.5c-3.5-2.3-20.4-10.3-26.5-6.6C41.1 4.6 14.1 22.5 13.1 32c-1 9.5-4.3 13.1-3.1 17.6 1.2 4.5 29-2.4 37.9-7.7C56.9 36.6 73.6 7.5 73.6 7.5z" class="a"/><path d="M71.6 4.4C60.5 31.5 33.3 42.8 7.9 47.9c-0.6 1.5 7.7 15.2 9 15.5 27.2-3.4 66.6-28.8 71.7-47.6C88.6 14.6 73.3 4.3 71.6 4.4z" class="b"/><path d="M80.4 29.2c4.1-4.6 7-9.2 8.1-13.4 0.1-1.2-15.3-11.5-17-11.4 -2.5 6.1-5.8 11.4-9.8 16C67.9 22.6 74.6 25.4 80.4 29.2z" class="c"/><path d="M27.9 41.6c3-0.2 3-0.2 3-0.2s-8.4 18.4-8.9 21.1l-3.7 0.3L27.9 41.6z" class="c"/><path d="M48.3 7.9c-7.9 7.5-33.6 62.1-33.4 73.7 0.2 11.6-9.2 15.8-9 7.6 0.2-8.2-9.7-61.5-4.4-67.3C6.8 16 52.9-5 53.2 1.5 53.5 8 48.3 7.9 48.3 7.9z" class="a"/><circle cx="9.9" cy="89.9" r="8" class="b"/><path d="M12.3 82.3c1.9 1.5 3.1 3.7 3.1 6.3 0 4.4-3.6 8-8 8 -0.8 0-1.6-0.2-2.4-0.4 1.4 1.1 3 1.7 4.9 1.7 4.4 0 8-3.6 8-8C17.9 86.3 15.5 83.3 12.3 82.3z" class="c"/><path d="M47.5 7.8c-1.6 3.9-3.9 5.4-6.2 7.7 -2.3 2.3-1 8.2-10.7 23.5" fill="none"/><path d="M46.3 9.6c-0.8 1.7-3.6 3.2-4.8 5.1 -1 1.5-1.9 3-2.5 4.7 -2.4 6.6-4.4 12.7-8.2 18.8 -1 1.6-2.5 5.2-0.3 1.7 4.1-6.6 7.9-13.5 10.2-21.1 0.3-1 0.6-1.9 0.8-2.9 0.4-1 0.2-0.6-0.6 1.3 0.7-0.7 1.4-1.3 2.1-2.1 2.4-2.7 4.1-5.7 5.7-9 0.4-0.9 0.2-1-0.4-0.2C47.6 7 46.9 8.3 46.3 9.6L46.3 9.6z" fill="#B10032"/></svg>