<svg xmlns="http://www.w3.org/2000/svg" width="56" height="64" viewBox="0 0 56.2 64"><path d="M7.8 32.5V63c0 0.6 0.5 1 1 1h18.9V31.5H8.8C8.3 31.5 7.8 32 7.8 32.5zM55.2 31.5H36.3V64h18.9c0.6 0 1-0.4 1-1V32.5C56.2 32 55.7 31.5 55.2 31.5z"/><path d="M11.6 8.7c1.8-4.6 9.1 3 12.5 6.6 0.2-0.1 0.2-0.2 0.2-0.2C19.6 8.5 10.9 0.6 8.8 8.7c-2.6 10.1 10.8 7.7 13 7.3 0.4-0.1 0.7-0.1 0.9-0.2C20.2 15.9 9.9 13.2 11.6 8.7z"/><path d="M34.3 3.1c-3.7-3.3-6.7 6.9-7.9 11.7 -0.2 0-0.2-0.1-0.2-0.1C27.1 6.7 31.1-4.4 36.7 1.8c7 7.8-6 11.9-8.1 12.5 -0.4 0.1-0.7 0.2-0.9 0.3C30 13.5 37.9 6.3 34.3 3.1z"/><path d="M0 23.8l1.7 7.1c0.1 0.5 0.7 0.9 1.2 0.7l20.6-5.1 -2.2-9L0.8 22.6C0.2 22.8-0.1 23.3 0 23.8zM50.3 10.4l-20.6 5.1 2.2 9 20.6-5.1c0.5-0.1 0.9-0.7 0.7-1.2l-1.7-7.1C51.4 10.6 50.9 10.3 50.3 10.4z"/></svg>