<svg xmlns="http://www.w3.org/2000/svg" width="53" height="57" viewBox="0 0 53.1 57.4"><path d="M14.8 3.3c2.8-4.1 8.2 5.1 10.5 9.4 0.2-0.1 0.2-0.1 0.2-0.1C22.7 5 16.1-4.8 12.2 2.6c-4.9 9.2 8.6 10.1 10.9 10.2 0.4 0 0.7 0 1 0C21.5 12.3 12.1 7.3 14.8 3.3z"/><path d="M38.2 3.3c-2.8-4.1-8.2 5.1-10.5 9.4 -0.2-0.1-0.2-0.1-0.2-0.1 2.9-7.5 9.4-17.3 13.4-9.9 4.9 9.2-8.6 10.1-10.9 10.2 -0.4 0-0.7 0-1 0C31.6 12.3 41 7.3 38.2 3.3z"/><path d="M2.3 26v30.5c0 0.6 0.5 1 1 1h18.9V25H3.3C2.8 25 2.3 25.4 2.3 26zM49.7 25H30.8v32.5H49.7c0.6 0 1-0.4 1-1V26C50.7 25.4 50.3 25 49.7 25z"/><path d="M0 15.2v7.3c0 0.6 0.5 1 1 1h21.2v-9.3H1C0.5 14.2 0 14.7 0 15.2zM52.1 14.2H30.8v9.3H52.1c0.6 0 1-0.4 1-1v-7.3C53.1 14.7 52.6 14.2 52.1 14.2z"/></svg>