<?xml version="1.0" encoding="utf-8"?>
<!DOCTYPE svg PUBLIC "-//W3C//DTD SVG 1.1//EN" "http://www.w3.org/Graphics/SVG/1.1/DTD/svg11.dtd" [
	<!ENTITY ns_svg "http://www.w3.org/2000/svg">
	<!ENTITY ns_xlink "http://www.w3.org/1999/xlink">
]>
<svg  version="1.1" id="Layer_1" xmlns="&ns_svg;" xmlns:xlink="&ns_xlink;" width="308.622" height="149.726"
	 viewBox="0 0 308.622 149.726" overflow="visible" enable-background="new 0 0 308.622 149.726" xml:space="preserve">
<path fill="#FF0048" d="M96.882,79.829h27.733v53.218c-7.123,5.374-15.367,9.496-24.737,12.369s-18.803,4.31-28.296,4.31
	c-13.617,0-25.86-2.903-36.728-8.713c-10.871-5.81-19.396-13.866-25.579-24.174C3.09,106.533,0,94.883,0,81.891
	C0,68.897,3.09,57.25,9.276,46.942C15.459,36.636,24.048,28.58,35.042,22.77c10.994-5.811,23.36-8.716,37.103-8.716
	c11.493,0,21.926,1.938,31.295,5.811c9.37,3.873,17.239,9.493,23.612,16.863l-19.489,17.991
	c-9.37-9.868-20.677-14.805-33.919-14.805c-8.37,0-15.802,1.75-22.298,5.247c-6.496,3.498-11.557,8.432-15.18,14.803
	c-3.624,6.373-5.433,13.682-5.433,21.926c0,8.12,1.809,15.367,5.433,21.737c3.623,6.373,8.651,11.34,15.085,14.898
	c6.433,3.56,13.773,5.339,22.02,5.339c8.743,0,16.615-1.873,23.612-5.622V79.829z"/>
<g>
	<path fill="#FF0048" d="M140.447,27.921c-3.371-3.122-5.058-6.995-5.058-11.618c0-4.621,1.687-8.494,5.058-11.618
		C143.819,1.563,148.193,0,153.566,0c5.371,0,9.745,1.5,13.117,4.497c3.371,2.999,5.06,6.746,5.06,11.243
		c0,4.872-1.688,8.903-5.06,12.087c-3.372,3.187-7.746,4.779-13.117,4.779C148.193,32.606,143.819,31.046,140.447,27.921z
		 M138.949,46.66h29.234v100.816h-29.234V46.66z"/>
</g>
<path fill="#FF0048" d="M305.96,142.604c-2.873,2.125-6.403,3.718-10.587,4.779c-4.186,1.061-8.589,1.592-13.21,1.592
	c-11.996,0-21.271-3.062-27.83-9.182c-6.558-6.122-9.836-15.116-9.836-26.984V71.396h-0.037V48.909h0.037V24.362h29.232v24.547
	h0.004v22.486h-0.004v41.04c0,4.247,1.09,7.528,3.277,9.839c2.188,2.309,5.279,3.464,9.278,3.464c4.621,0,8.558-1.248,11.806-3.746
	L305.96,142.604z"/>
<g opacity="0.15">
	<path d="M273.729,94.711V76.08h0.004v0.301c-9.926-0.512-19.623,0.079-29.273,1.024V76.08h0.037v19.819
		C258.029,97.5,266.572,96.397,273.729,94.711z"/>
</g>
<g opacity="0.15">
	<path d="M138.949,100.585c11.762-1.89,18.982-4.287,29.234-6.494V73.545c-7.483,1.594-16.538,3.33-29.234,4.738V100.585z"/>
</g>
<g>
	<linearGradient id="XMLID_2_" gradientUnits="userSpaceOnUse" x1="76.0933" y1="81.6426" x2="308.6221" y2="81.6426">
		<stop  offset="0.1854" style="stop-color:#FF0048"/>
		<stop  offset="0.2596" style="stop-color:#FB0047"/>
		<stop  offset="0.3272" style="stop-color:#F00043"/>
		<stop  offset="0.3922" style="stop-color:#DE003D"/>
		<stop  offset="0.4557" style="stop-color:#C40034"/>
		<stop  offset="0.5175" style="stop-color:#A30028"/>
		<stop  offset="0.5281" style="stop-color:#9C0026"/>
		<stop  offset="0.6067" style="stop-color:#A80024"/>
		<stop  offset="0.6742" style="stop-color:#E30040"/>
		<stop  offset="0.9101" style="stop-color:#DF003F"/>
		<stop  offset="1" style="stop-color:#B70034"/>
	</linearGradient>
	<path fill="url(#XMLID_2_)" d="M76.093,101.553c65.294,0,71.443-5.855,94.867-10.541c29.999-5.999,50.297-1.287,62.367,0.88
		c37.579,6.743,54.168-7.906,75.295-8.208c0-9.076-2.974-12.067-2.974-21.951c-50.947,23.423-78.763,0.097-110.386,4.782
		c-24.888,1.171-34.16,12.103-118.876,12.103C76.386,88.476,76.093,94.233,76.093,101.553z"/>
</g>
<path fill="#FF0048" d="M209.852,47.815l0.073,1.094l0.654,22.486l0,0v76.081h-29.231V71.396l0.013,0.048V48.958l-0.013-0.049
	v-4.498c0-11.492,3.402-20.613,10.211-27.358c6.808-6.746,16.396-10.121,28.765-10.121c4.372,0,8.525,0.469,12.46,1.407
	c3.936,0.938,7.216,2.281,9.842,4.028l-7.685,21.175c-3.374-2.374-7.309-3.562-11.805-3.562c-8.871,0-13.305,4.873-13.305,14.617
	L209.852,47.815z"/>
</svg>
